Patient4_TMGait_0pt6_02_right_36_GRF.mot
version=1
nRows=32
nColumns=19
inDegrees=no
endheader
time	F1x	F1y	F1z	M1x	M1y	M1z	F2x	F2y	F2z	M2x	M2y	M2z	EC1x	EC1y	EC1z	EC2x	EC2y	EC2z
43.31	-13.6054	755.2952	61.8346	-259.9966	-65.5336	792.633	-15.1341	-4.4031	-0.84409	-0.10586	3.5256	-1.5571	-0.0592	0.0182	-0.0073	-0.0462	0.0165	0.9585
43.3224	-8.5317	754.2499	62.0592	-258.9306	-64.2824	791.3935	-10.3317	-2.2339	-0.54677	0.24532	2.3987	-0.21637	-0.0592	0.0182	-0.0073	-0.0462	0.0165	0.9585
43.3347	-3.9468	753.0329	62.1025	-257.8407	-62.8235	789.1458	-6.2646	-0.34376	-0.31044	0.56353	1.4655	1.0031	-0.0592	0.0182	-0.0073	-0.0462	0.0165	0.9585
43.3471	-0.12338	751.9721	61.9987	-256.8626	-61.2684	786.2452	-3.1496	1.1542	-0.14287	0.82749	0.76637	2.0182	-0.0592	0.0182	-0.0073	-0.0462	0.0165	0.9585
43.3594	2.8956	751.309	61.7907	-256.0785	-59.7001	783.0601	-1.001	2.2602	-0.031254	1.0337	0.2912	2.8349	-0.0592	0.0182	-0.0073	-0.0462	0.0165	0.9585
43.3718	5.1776	751.0653	61.5542	-255.4826	-58.2149	779.7859	0.32226	2.992	0.033794	1.1762	0.0062523	3.4227	-0.0592	0.0182	-0.0073	-0.0462	0.0165	0.9585
43.3841	6.8866	751.0206	61.3175	-254.9907	-56.8331	776.3288	0.9994	3.3963	0.061708	1.2524	-0.12391	3.7853	-0.0592	0.0182	-0.0073	-0.0462	0.0165	0.9585
43.3965	8.2332	750.8544	61.0647	-254.4894	-55.5157	772.4765	1.2204	3.4864	0.057592	1.2491	-0.13528	3.8766	-0.0592	0.0182	-0.0073	-0.0462	0.0165	0.9585
43.4089	9.4451	750.2907	60.7366	-253.8853	-54.1634	768.0143	1.151	3.2544	0.025148	1.1451	-0.06043	3.6346	-0.0592	0.0182	-0.0073	-0.0462	0.0165	0.9585
43.4212	10.7157	749.1422	60.2691	-253.113	-52.6734	762.7983	0.9215	2.6518	-0.03302	0.90571	0.072073	2.9665	-0.0592	0.0182	-0.0073	-0.0462	0.0165	0.9585
43.4336	12.189	747.3094	59.6384	-252.1321	-50.9921	756.7662	0.63463	1.5951	-0.11569	0.48746	0.23749	1.75	-0.0592	0.0182	-0.0073	-0.0462	0.0165	0.9585
43.4459	13.9846	744.8212	58.8555	-250.9411	-49.1098	749.981	0.355	0.006116	-0.21544	-0.14986	0.41297	-0.11704	-0.0592	0.0182	-0.0073	-0.0462	0.0165	0.9585
43.4583	16.176	741.8431	57.9953	-249.5796	-47.0859	742.6293	0.15728	-2.1676	-0.32734	-1.0294	0.57021	-2.7202	-0.0592	0.0182	-0.0073	-0.0462	0.0165	0.9585
43.4706	18.8227	738.6591	57.1524	-248.1203	-44.9991	735.0132	0.088355	-4.8689	-0.43165	-2.1289	0.67078	-5.9911	-0.0592	0.0182	-0.0073	-0.0462	0.0165	0.9585
43.483	21.9235	735.5919	56.4684	-246.6459	-42.9817	727.4926	0.23239	-7.8812	-0.50015	-3.3559	0.64907	-9.6716	-0.0592	0.0182	-0.0073	-0.0462	0.0165	0.9585
43.4954	25.4421	732.886	56.048	-245.2133	-41.1396	720.3537	0.65076	-10.6926	-0.48243	-4.4988	0.41589	-13.1285	-0.0592	0.0182	-0.0073	-0.0462	0.0165	0.9585
43.5077	29.2821	730.6476	55.9897	-243.8341	-39.5881	713.7707	1.4333	-12.4331	-0.32154	-5.1935	-0.13295	-15.3138	-0.0592	0.0182	-0.0073	-0.0462	0.0165	0.9585
43.5201	33.317	728.7971	56.2926	-242.4674	-38.3596	707.7463	2.6238	-11.741	0.056748	-4.8715	-1.103	-14.5692	-0.0592	0.0182	-0.0073	-0.0462	0.0165	0.9585
43.5324	37.3757	727.0464	56.9211	-241.0156	-37.4692	702.0897	4.2474	-6.74	0.72674	-2.7463	-2.5809	-8.6282	-0.0592	0.0182	-0.0073	-0.0462	0.0165	0.9585
43.5448	41.2778	724.9209	57.7289	-239.3368	-36.8395	696.4143	6.217	4.9413	1.7615	2.1739	-4.6051	5.3627	-0.0592	0.0182	-0.0073	-0.0462	0.0165	0.9585
43.5571	44.8703	721.7856	58.544	-237.2531	-36.3656	690.1694	8.3144	25.9549	3.195	10.9968	-7.1063	30.579	-0.0592	0.0182	-0.0073	-0.0462	0.0165	0.9585
43.5695	48.0528	716.8836	59.1001	-234.5631	-35.8401	682.6587	10.0959	58.808	4.9999	24.7621	-9.8419	70.0296	-0.0592	0.0182	-0.0073	-0.0462	0.0165	0.9585
43.5819	50.7748	709.2832	59.1239	-231.0177	-35.0272	672.9787	10.8213	105.051	7.0243	44.1025	-12.3022	125.5988	-0.0592	0.0182	-0.0073	-0.0462	0.0165	0.9585
43.5942	53.0156	697.7876	58.3005	-226.2915	-33.6398	659.9635	9.4195	164.0772	8.9283	68.7402	-13.6211	196.6055	-0.0592	0.0182	-0.0073	-0.0462	0.0165	0.9585
43.6066	54.7082	680.8744	56.3884	-219.9559	-31.4709	642.153	4.5875	231.5988	10.1328	96.8502	-12.5952	277.962	-0.0592	0.0182	-0.0073	-0.0462	0.0165	0.9585
43.6189	55.7045	656.8833	53.2275	-211.528	-28.4173	617.9876	-4.0768	298.7158	9.8322	124.685	-8.1687	359.0031	-0.0592	0.0182	-0.0073	-0.0462	0.0165	0.9585
43.6313	55.8173	624.4832	48.8913	-200.6067	-24.6087	586.2267	-14.5542	354.9894	6.9396	147.8772	-0.085459	427.0666	-0.0592	0.0182	-0.0073	-0.0462	0.0165	0.9585
43.6436	54.8607	583.296	43.6731	-187.0587	-20.3726	546.5313	-24.578	395.2485	1.9107	164.2599	10.1476	475.6944	-0.0592	0.0182	-0.0073	-0.0462	0.0165	0.9585
43.656	52.771	534.0077	38.0972	-171.0582	-16.1909	499.5485	-32.8738	420.9726	-4.603	174.4262	21.2491	506.5049	-0.0592	0.0182	-0.0073	-0.0462	0.0165	0.9585
43.6684	49.6251	478.1576	32.6681	-153.0422	-12.4733	446.7084	-39.0376	437.3172	-11.5583	180.5475	31.8808	525.6789	-0.0592	0.0182	-0.0073	-0.0462	0.0165	0.9585
43.6807	45.481	417.8848	27.6713	-133.65	-9.4427	389.9794	-43.258	450.4078	-18.3101	185.1976	41.3939	540.612	-0.0592	0.0182	-0.0073	-0.0462	0.0165	0.9585
43.6931	40.3711	355.6879	23.2018	-113.6525	-7.1745	331.6761	-46.0725	465.4837	-24.3697	190.5872	49.479	557.6008	-0.0592	0.0182	-0.0073	-0.0462	0.0165	0.9585
